# File created by Blade
# Date/Time:  Thu Jan 22 16:04:59 2015
# Frame Rate: 120.000 fps
#------------------------------------------------------
:FULLY-SPECIFIED
:DEGREES
1241
root 3.646642 37.013425 6.504738 0.351721 -4.802733 2.115019
RightUpLeg 8.937511 -4.428685 -9.779595
RightLeg -5.585422 -0.000000 0.000000
RightFoot -8.931720 -11.550821 20.603855
RightToeBase 10.812633 -0.000000 -0.000000
LeftUpLeg 7.812729 -0.151619 6.305994
LeftLeg -3.059367 -0.000000 0.000000
LeftFoot -5.785256 6.000520 -22.917417
LeftToeBase 7.778464 -0.000000 -0.000000
Spine -0.281389 -3.396373 -2.650838
RightShoulder -11.044295 -0.601120 -43.981924
RightArm -35.398893 89.302831 -77.056574
RightForeArm 37.336986 -0.000000 18.235427
RightHand 12.820129 0.000000 -11.647782
RightHandThumb1 -24.326973 -0.000000 -32.862282
LeftShoulder -27.193370 16.984216 41.275656
LeftArm 147.575455 -82.145884 -96.211276
LeftForeArm 51.849918 -0.000000 7.143425
LeftHand -16.064642 -0.000000 28.112096
LeftHandThumb1 -26.253704 0.000000 33.147579
Head 16.454748 5.881044 3.437842
1242
root 3.639230 37.012995 6.508009 0.427174 -4.805292 2.092719
RightUpLeg 8.877005 -4.462338 -9.744378
RightLeg -5.598855 -0.000000 0.000000
RightFoot -8.926356 -11.528017 20.600458
RightToeBase 10.849477 -0.000000 -0.000000
LeftUpLeg 7.757821 -0.144591 6.336976
LeftLeg -3.081380 -0.000000 0.000000
LeftFoot -5.783212 6.016437 -22.900429
LeftToeBase 7.776206 -0.000000 -0.000000
Spine -0.372517 -3.349510 -2.640992
RightShoulder -10.996763 -0.548268 -44.026034
RightArm -39.291974 89.184273 -80.867324
RightForeArm 37.496019 0.000000 18.138342
RightHand 12.975983 0.000000 -11.514978
RightHandThumb1 -24.326973 -0.000000 -32.862282
LeftShoulder -27.231489 16.962515 41.208349
LeftArm 149.027232 -82.117548 -97.614952
LeftForeArm 51.987910 -0.000000 7.154519
LeftHand -16.025655 0.000000 27.816644
LeftHandThumb1 -26.253704 0.000000 33.147579
Head 16.212961 5.534236 3.355161
1243
root 3.632882 37.012892 6.510056 0.510649 -4.795884 2.070623
RightUpLeg 8.809193 -4.502160 -9.711154
RightLeg -5.610641 -0.000000 0.000000
RightFoot -8.909848 -11.492349 20.610901
RightToeBase 10.828477 -0.000000 -0.000000
LeftUpLeg 7.684118 -0.169223 6.366049
LeftLeg -3.090503 -0.000000 0.000000
LeftFoot -5.791355 6.037125 -22.897805
LeftToeBase 7.754321 -0.000000 -0.000000
Spine -0.469526 -3.318881 -2.632281
RightShoulder -10.944907 -0.455819 -44.063025
RightArm -41.443247 89.076698 -82.929984
RightForeArm 37.730048 -0.000000 18.085679
RightHand 13.079646 -0.000000 -11.465086
RightHandThumb1 -24.326973 -0.000000 -32.862282
LeftShoulder -27.278822 16.937498 41.152036
LeftArm 150.176604 -82.149295 -98.704162
LeftForeArm 52.018742 -0.000000 7.021378
LeftHand -15.469699 0.000000 28.197446
LeftHandThumb1 -26.253704 0.000000 33.147579
Head 15.976187 5.260663 3.324436
1244
root 3.626196 37.012468 6.512567 0.578996 -4.812557 2.056999
RightUpLeg 8.748505 -4.500537 -9.683909
RightLeg -5.619881 -0.000000 0.000000
RightFoot -8.909751 -11.488737 20.621515
RightToeBase 10.798562 -0.000000 -0.000000
LeftUpLeg 7.628328 -0.149576 6.389800
LeftLeg -3.095797 -0.000000 0.000000
LeftFoot -5.799044 6.031829 -22.919120
LeftToeBase 7.746398 -0.000000 -0.000000
Spine -0.536350 -3.271529 -2.649794
RightShoulder -10.946744 -0.396434 -44.098810
RightArm -48.039805 89.096423 -89.364856
RightForeArm 37.686900 -0.000000 18.167328
RightHand 13.020676 -0.000000 -11.587520
RightHandThumb1 -24.326973 -0.000000 -32.862282
LeftShoulder -27.349671 16.916971 41.113776
LeftArm 150.832176 -82.266886 -99.339041
LeftForeArm 51.856625 -0.000000 7.011906
LeftHand -15.460756 0.000000 28.247083
LeftHandThumb1 -26.253704 0.000000 33.147579
Head 15.712020 4.980744 3.270928
1245
root 3.619962 37.011638 6.516979 0.627868 -4.815353 2.048073
RightUpLeg 8.720589 -4.516557 -9.665510
RightLeg -5.643776 -0.000000 0.000000
RightFoot -8.902315 -11.473213 20.609728
RightToeBase 10.820226 -0.000000 -0.000000
LeftUpLeg 7.594738 -0.166109 6.404642
LeftLeg -3.104811 -0.000000 0.000000
LeftFoot -5.813877 6.052109 -22.922356
LeftToeBase 7.756874 -0.000000 -0.000000
Spine -0.574668 -3.254367 -2.663044
RightShoulder -10.959828 -0.327988 -44.105291
RightArm -55.429998 89.102464 -96.667605
RightForeArm 37.753231 0.000000 18.173990
RightHand 12.939330 -0.000000 -11.473387
RightHandThumb1 -24.326973 -0.000000 -32.862282
LeftShoulder -27.466927 16.913621 41.040207
LeftArm 151.888956 -82.339476 -100.370477
LeftForeArm 51.743924 -0.000000 6.968143
LeftHand -15.064599 -0.000000 28.383617
LeftHandThumb1 -26.253704 0.000000 33.147579
Head 15.440639 4.820635 3.243248
1246
root 3.613884 37.011388 6.519273 0.693999 -4.827481 2.031199
RightUpLeg 8.665739 -4.521426 -9.639076
RightLeg -5.659162 -0.000000 0.000000
RightFoot -8.884995 -11.460609 20.613209
RightToeBase 10.778233 -0.000000 -0.000000
LeftUpLeg 7.542711 -0.172520 6.428200
LeftLeg -3.114550 -0.000000 0.000000
LeftFoot -5.820030 6.076089 -22.919947
LeftToeBase 7.681426 -0.000000 -0.000000
Spine -0.633721 -3.216734 -2.665731
RightShoulder -10.952783 -0.227738 -44.121660
RightArm -55.648103 89.014510 -96.822944
RightForeArm 37.756484 -0.000000 18.132784
RightHand 12.941335 0.000000 -11.445271
RightHandThumb1 -24.326973 -0.000000 -32.862282
LeftShoulder -27.544481 16.872117 41.006384
LeftArm 152.370763 -82.485491 -100.840168
LeftForeArm 51.689114 -0.000000 6.918769
LeftHand -14.901248 -0.000000 28.634630
LeftHandThumb1 -26.253704 0.000000 33.147579
Head 15.194044 4.752780 3.252685
1247
root 3.608135 37.010549 6.522481 0.750121 -4.855153 2.020514
RightUpLeg 8.624090 -4.510781 -9.618155
RightLeg -5.688096 -0.000000 0.000000
RightFoot -8.878638 -11.436834 20.622338
RightToeBase 10.846956 -0.000000 -0.000000
LeftUpLeg 7.490369 -0.150367 6.447350
LeftLeg -3.093209 -0.000000 0.000000
LeftFoot -5.839927 6.055567 -22.954962
LeftToeBase 7.677382 -0.000000 -0.000000
Spine -0.673685 -3.162219 -2.671989
RightShoulder -10.983423 -0.175536 -44.127493
RightArm -58.728358 88.957684 -99.838171
RightForeArm 37.747063 -0.000000 18.148184
RightHand 12.968648 -0.000000 -11.931759
RightHandThumb1 -24.326973 -0.000000 -32.862282
LeftShoulder -27.627140 16.848327 40.955824
LeftArm 153.464605 -82.581415 -101.957268
LeftForeArm 51.526406 0.000000 6.915933
LeftHand -14.558329 0.000000 28.764212
LeftHandThumb1 -26.253704 0.000000 33.147579
Head 14.933115 4.752451 3.287147
1248
root 3.602347 37.009337 6.525832 0.800022 -4.868891 2.013331
RightUpLeg 8.593255 -4.506029 -9.602615
RightLeg -5.718645 -0.000000 0.000000
RightFoot -8.873776 -11.428367 20.629815
RightToeBase 10.822371 -0.000000 -0.000000
LeftUpLeg 7.456586 -0.148132 6.461755
LeftLeg -3.105990 -0.000000 0.000000
LeftFoot -5.851645 6.069268 -22.946207
LeftToeBase 7.702967 -0.000000 -0.000000
Spine -0.711685 -3.131471 -2.688898
RightShoulder -10.970736 -0.098984 -44.121671
RightArm -58.082843 88.808929 -99.159371
RightForeArm 37.909612 -0.000000 18.078781
RightHand 13.027850 0.000000 -12.025816
RightHandThumb1 -24.326973 -0.000000 -32.862282
LeftShoulder -27.694108 16.820512 40.909752
LeftArm 154.619011 -82.666895 -103.133256
LeftForeArm 51.624366 -0.000000 6.893821
LeftHand -14.393228 -0.000000 28.818931
LeftHandThumb1 -26.253704 0.000000 33.147579
Head 14.684520 4.836503 3.326950
1249
root 3.597391 37.008570 6.529534 0.852409 -4.883883 2.005787
RightUpLeg 8.558367 -4.515589 -9.588527
RightLeg -5.744132 -0.000000 0.000000
RightFoot -8.863597 -11.401479 20.646975
RightToeBase 10.831099 -0.000000 -0.000000
LeftUpLeg 7.420505 -0.158823 6.472094
LeftLeg -3.118273 -0.000000 0.000000
LeftFoot -5.858163 6.104333 -22.934014
LeftToeBase 7.698056 -0.000000 -0.000000
Spine -0.750354 -3.108739 -2.690008
RightShoulder -10.962634 -0.013766 -44.132665
RightArm -55.867394 88.639855 -96.927889
RightForeArm 37.985680 0.000000 18.026264
RightHand 13.158768 -0.000000 -12.363953
RightHandThumb1 -24.326973 -0.000000 -32.862282
LeftShoulder -27.752653 16.797094 40.876145
LeftArm 155.744785 -82.781573 -104.320477
LeftForeArm 51.563762 -0.000000 6.879972
LeftHand -14.133802 -0.000000 29.124362
LeftHandThumb1 -26.253704 0.000000 33.147579
Head 14.474118 4.993048 3.388191
1250
root 3.592426 37.008013 6.532884 0.908588 -4.902202 1.997903
RightUpLeg 8.515994 -4.511343 -9.572625
RightLeg -5.766576 -0.000000 0.000000
RightFoot -8.858410 -11.384603 20.651263
RightToeBase 10.852962 -0.000000 -0.000000
LeftUpLeg 7.383416 -0.143926 6.486195
LeftLeg -3.133205 -0.000000 0.000000
LeftFoot -5.857900 6.107965 -22.950710
LeftToeBase 7.653800 -0.000000 -0.000000
Spine -0.799384 -3.076266 -2.687568
RightShoulder -10.958646 0.043256 -44.124953
RightArm -56.075796 88.492725 -97.139016
RightForeArm 38.045980 -0.000000 18.001215
RightHand 13.298565 -0.000000 -12.404429
RightHandThumb1 -24.326973 -0.000000 -32.862282
LeftShoulder -27.843149 16.809775 40.819117
LeftArm 157.285293 -82.706670 -105.940048
LeftForeArm 51.534671 -0.000000 6.830332
LeftHand -13.592971 -0.000000 29.619195
LeftHandThumb1 -26.253704 0.000000 33.147579
Head 14.284947 5.182988 3.455076
